<svg width="229" height="66" viewBox="0 0 229 66" fill="none" xmlns="http://www.w3.org/2000/svg">
<ellipse cx="8.74797" cy="32.6158" rx="12.5525" ry="8.36833" transform="rotate(-90 8.74797 32.6158)" fill="#1897FC"/>
<ellipse cx="32.6912" cy="8.4406" rx="12.5525" ry="8.36833" fill="#1897FC"/>
<ellipse cx="56.4517" cy="8.48521" rx="6.90286" ry="4.60191" fill="#17E8CE"/>
<ellipse cx="56.4517" cy="56.9466" rx="6.90286" ry="4.60191" fill="#17E8CE"/>
<ellipse cx="8.6973" cy="8.48521" rx="6.90286" ry="4.60191" fill="#17E8CE"/>
<ellipse cx="8.6973" cy="56.9466" rx="6.90286" ry="4.60191" fill="#17E8CE"/>
<circle cx="32.6904" cy="32.616" r="12.5525" fill="#1897FC"/>
<ellipse cx="32.6904" cy="56.7911" rx="12.5525" ry="8.36833" fill="#1897FC"/>
<ellipse cx="56.633" cy="32.6158" rx="12.5525" ry="8.36833" transform="rotate(-90 56.633 32.6158)" fill="#1897FC"/>
<path d="M104.694 21.038C104.475 22.9323 103.807 24.5474 102.69 25.8832C101.573 27.219 100.055 28.239 98.1363 28.9433C96.2176 29.6477 93.9346 29.9998 91.2874 29.9998C89.0773 29.9998 87.0493 29.7448 85.2035 29.2348C83.382 28.7248 81.8033 27.9597 80.4676 26.9397C79.1561 25.9196 78.136 24.6567 77.4074 23.1509C76.6788 21.6208 76.3145 19.8358 76.3145 17.7957C76.3145 15.7556 76.6788 13.9705 77.4074 12.4404C78.136 10.9103 79.1561 9.63526 80.4676 8.61521C81.8033 7.57087 83.382 6.79369 85.2035 6.28367C87.0493 5.74936 89.0773 5.4822 91.2874 5.4822C93.9346 5.4822 96.2176 5.8465 98.1363 6.57511C100.079 7.30372 101.609 8.34805 102.727 9.70812C103.844 11.0439 104.499 12.6711 104.694 14.5898H99.8849C99.5692 13.5697 99.0349 12.6954 98.282 11.9668C97.5534 11.2139 96.6062 10.6432 95.4404 10.2546C94.2747 9.86598 92.8903 9.67169 91.2874 9.67169C89.2959 9.67169 87.5472 9.98742 86.0414 10.6189C84.5356 11.2261 83.3698 12.1368 82.5441 13.3512C81.7183 14.5412 81.3055 16.0227 81.3055 17.7957C81.3055 19.5443 81.7183 21.0137 82.5441 22.2037C83.3698 23.3938 84.5356 24.3045 86.0414 24.936C87.5472 25.5432 89.2959 25.8468 91.2874 25.8468C92.8903 25.8468 94.2625 25.6525 95.404 25.2639C96.5698 24.8753 97.517 24.3167 98.2456 23.5881C98.9985 22.8595 99.5449 22.0094 99.8849 21.038H104.694Z" fill="#020204"/>
<path d="M129.749 29.5262H125.013V11.4203H129.749V29.5262ZM125.268 20.8194L125.305 22.058C125.256 22.398 125.135 22.8959 124.94 23.5517C124.746 24.1831 124.443 24.8631 124.03 25.5917C123.641 26.3204 123.131 27.0247 122.5 27.7047C121.868 28.3605 121.091 28.9069 120.168 29.3441C119.245 29.757 118.152 29.9634 116.889 29.9634C115.894 29.9634 114.91 29.842 113.939 29.5991C112.991 29.3562 112.129 28.9555 111.352 28.3969C110.575 27.814 109.955 27.0368 109.494 26.0653C109.033 25.0939 108.802 23.8674 108.802 22.3859V11.4203H113.538V21.5844C113.538 22.7502 113.72 23.6731 114.084 24.3531C114.473 25.0089 115.031 25.4703 115.76 25.7375C116.489 26.0046 117.351 26.1382 118.347 26.1382C119.658 26.1382 120.787 25.8589 121.735 25.3003C122.682 24.7174 123.447 24.0131 124.03 23.1873C124.637 22.3616 125.05 21.5723 125.268 20.8194Z" fill="#020204"/>
<path d="M148.014 29.927C146.411 29.927 145.039 29.6477 143.897 29.0891C142.756 28.5062 141.833 27.7533 141.129 26.8304C140.424 25.8832 139.902 24.8631 139.562 23.7702C139.222 22.653 139.052 21.5601 139.052 20.4915C139.052 19.1557 139.21 17.9171 139.526 16.7756C139.866 15.6341 140.388 14.6384 141.092 13.7883C141.797 12.914 142.719 12.234 143.861 11.7482C145.002 11.2625 146.387 11.0196 148.014 11.0196C149.884 11.0196 151.536 11.4203 152.968 12.2218C154.426 12.999 155.567 14.0919 156.393 15.5005C157.243 16.9092 157.668 18.5728 157.668 20.4915C157.668 22.3616 157.243 24.0131 156.393 25.446C155.543 26.8547 154.389 27.9597 152.932 28.7612C151.475 29.5384 149.835 29.927 148.014 29.927ZM146.484 26.2839C147.771 26.2839 148.888 26.0411 149.835 25.5553C150.783 25.0696 151.511 24.4017 152.021 23.5517C152.556 22.6773 152.823 21.6573 152.823 20.4915C152.823 18.7428 152.264 17.3342 151.147 16.2656C150.054 15.197 148.5 14.6626 146.484 14.6626C145.075 14.6626 143.849 14.8934 142.804 15.3548C141.76 15.8163 140.946 16.4842 140.364 17.3585C139.805 18.2085 139.526 19.2529 139.526 20.4915C139.526 21.633 139.805 22.6409 140.364 23.5152C140.922 24.3895 141.724 25.0696 142.768 25.5553C143.812 26.0411 145.051 26.2839 146.484 26.2839ZM139.526 4.13428V24.8631C139.526 25.6403 139.489 26.4782 139.416 27.3768C139.344 28.2512 139.271 28.9676 139.198 29.5262H134.79V4.13428H139.526Z" fill="#020204"/>
<path d="M177.673 23.5152H182.264C182.069 24.7539 181.547 25.8589 180.697 26.8304C179.871 27.8019 178.742 28.5669 177.309 29.1255C175.876 29.6841 174.128 29.9634 172.063 29.9634C169.756 29.9634 167.716 29.5991 165.943 28.8705C164.17 28.1176 162.786 27.0368 161.79 25.6282C160.794 24.2195 160.296 22.5195 160.296 20.5279C160.296 18.5364 160.782 16.8363 161.753 15.4277C162.725 13.9948 164.073 12.9018 165.797 12.149C167.546 11.3961 169.586 11.0196 171.917 11.0196C174.298 11.0196 176.277 11.3961 177.856 12.149C179.434 12.9018 180.6 14.0433 181.353 15.5734C182.13 17.0792 182.458 19.01 182.336 21.3658H165.068C165.19 22.2887 165.53 23.1266 166.089 23.8795C166.671 24.6324 167.449 25.2274 168.42 25.6646C169.416 26.1018 170.594 26.3204 171.954 26.3204C173.46 26.3204 174.71 26.0653 175.706 25.5553C176.726 25.021 177.382 24.341 177.673 23.5152ZM171.699 14.6262C169.95 14.6262 168.529 15.0148 167.436 15.792C166.344 16.5449 165.639 17.4799 165.324 18.5971H177.637C177.516 17.3828 176.933 16.4234 175.888 15.7191C174.868 14.9905 173.472 14.6262 171.699 14.6262Z" fill="#020204"/>
<path d="M203.79 15.0269L189.4 27.3404L188.89 25.9561H204.045V29.5262H185.502V25.9561L199.892 13.6426L200.402 15.0269H185.502V11.4203H203.79V15.0269Z" fill="#020204"/>
<path d="M206.634 11.4203H211.662L219.494 28.7976L215.414 29.5262L206.634 11.4203ZM228.784 11.4203L216.252 36.8123H211.334L216.689 26.8304L223.72 11.4203H228.784Z" fill="#020204"/>
<path d="M75.1123 37.097H99.9578V41.1408H75.1123V37.097ZM85.1306 40.6308H89.9759V60.6674H85.1306V40.6308Z" fill="#020204"/>
<path d="M116.411 54.6564H121.001C120.807 55.8951 120.284 57.0001 119.434 57.9716C118.609 58.9431 117.479 59.7081 116.046 60.2667C114.613 60.8253 112.865 61.1046 110.8 61.1046C108.493 61.1046 106.453 60.7403 104.68 60.0117C102.907 59.2588 101.523 58.178 100.527 56.7694C99.5313 55.3608 99.0334 53.6607 99.0334 51.6691C99.0334 49.6776 99.5191 47.9775 100.491 46.5689C101.462 45.136 102.81 44.0431 104.534 43.2902C106.283 42.5373 108.323 42.1608 110.655 42.1608C113.035 42.1608 115.014 42.5373 116.593 43.2902C118.171 44.0431 119.337 45.1845 120.09 46.7146C120.867 48.2204 121.195 50.1512 121.074 52.507H103.806C103.927 53.4299 104.267 54.2678 104.826 55.0207C105.409 55.7736 106.186 56.3687 107.157 56.8058C108.153 57.243 109.331 57.4616 110.691 57.4616C112.197 57.4616 113.448 57.2066 114.443 56.6965C115.463 56.1622 116.119 55.4822 116.411 54.6564ZM110.436 45.7674C108.687 45.7674 107.267 46.156 106.174 46.9332C105.081 47.6861 104.376 48.6211 104.061 49.7383H116.374C116.253 48.524 115.67 47.5647 114.626 46.8603C113.606 46.1317 112.209 45.7674 110.436 45.7674Z" fill="#020204"/>
<path d="M146.092 53.5271C145.97 55.1057 145.46 56.4658 144.562 57.6073C143.687 58.7488 142.473 59.6231 140.919 60.2303C139.364 60.8132 137.518 61.1046 135.381 61.1046C133.147 61.1046 131.143 60.7524 129.37 60.0481C127.622 59.3195 126.237 58.263 125.217 56.8787C124.221 55.4701 123.723 53.7335 123.723 51.6691C123.723 49.6048 124.221 47.8682 125.217 46.4596C126.237 45.051 127.622 43.9823 129.37 43.2537C131.143 42.5251 133.147 42.1608 135.381 42.1608C137.518 42.1608 139.352 42.4644 140.882 43.0716C142.412 43.6545 143.614 44.5045 144.489 45.6217C145.387 46.7389 145.91 48.0868 146.055 49.6655H141.72C141.307 48.4511 140.542 47.5039 139.425 46.8239C138.308 46.1439 136.96 45.8039 135.381 45.8039C134.118 45.8039 132.965 46.0224 131.92 46.4596C130.9 46.8968 130.074 47.5525 129.443 48.4268C128.836 49.2769 128.532 50.3577 128.532 51.6691C128.532 52.9564 128.836 54.0371 129.443 54.9114C130.05 55.7615 130.876 56.4051 131.92 56.8423C132.965 57.2551 134.118 57.4616 135.381 57.4616C137.081 57.4616 138.466 57.1216 139.534 56.4415C140.627 55.7615 141.368 54.79 141.756 53.5271H146.092Z" fill="#020204"/>
<path d="M166.112 60.6674V50.722C166.112 49.7262 165.942 48.9004 165.602 48.2447C165.262 47.5889 164.715 47.0911 163.962 46.7511C163.234 46.411 162.25 46.241 161.012 46.241C159.822 46.241 158.741 46.4718 157.769 46.9332C156.798 47.3704 156.009 47.9533 155.401 48.6819C154.794 49.3862 154.454 50.1391 154.381 50.9405L154.345 48.9369C154.466 48.1354 154.746 47.3339 155.183 46.5325C155.62 45.731 156.203 45.0024 156.931 44.3466C157.66 43.6909 158.534 43.1687 159.554 42.7801C160.599 42.3673 161.765 42.1608 163.052 42.1608C164.169 42.1608 165.201 42.3065 166.148 42.598C167.095 42.8651 167.921 43.2902 168.626 43.8731C169.33 44.4559 169.876 45.1845 170.265 46.0589C170.654 46.9089 170.848 47.9168 170.848 49.0826V60.6674H166.112ZM149.9 60.6674V35.2755H154.636V60.6674H149.9Z" fill="#020204"/>
</svg>
